<svg width="722" height="522" viewBox="0 0 722 522" fill="none" xmlns="http://www.w3.org/2000/svg">
<rect width="722" height="522" fill="white"/>
<mask id="mask0_1_233" style="mask-type:alpha" maskUnits="userSpaceOnUse" x="0" y="0" width="722" height="522">
<rect width="722" height="522" fill="white"/>
</mask>
<g mask="url(#mask0_1_233)">
<path d="M-47.5 122L52 -17H-47.5H-147L-47.5 122Z" fill="url(#paint0_linear_1_233)"/>
<path d="M249.5 -17L349 122H249.5H150L249.5 -17Z" fill="white"/>
<path d="M348.5 122L448 -17H348.5H249L348.5 122Z" fill="url(#paint1_radial_1_233)"/>
<path d="M447.5 -17L547 122H447.5H348L447.5 -17Z" fill="white"/>
<path d="M546.5 122L646 -17H546.5H447L546.5 122Z" fill="url(#paint2_linear_1_233)"/>
<path d="M645.5 -17L546 122H645.5H745L645.5 -17Z" fill="url(#paint3_linear_1_233)"/>
<path d="M744.5 122L645 -17H744.5H844L744.5 122Z" fill="url(#paint4_linear_1_233)"/>
<path d="M51.5 -17L151 122H51.5H-48L51.5 -17Z" fill="url(#paint5_radial_1_233)"/>
<path d="M150.5 122L250 -17H150.5H51L150.5 122Z" fill="url(#paint6_linear_1_233)"/>
<path d="M-48.5 122L51 261H-48.5H-148L-48.5 122Z" fill="url(#paint7_linear_1_233)"/>
<path d="M248.5 261L348 122H248.5H149L248.5 261Z" fill="white"/>
<path d="M347.5 122L447 261H347.5H248L347.5 122Z" fill="white"/>
<path d="M446.5 261L546 122H446.5H347L446.5 261Z" fill="white"/>
<path d="M545.5 122L645 261H545.5H446L545.5 122Z" fill="url(#paint8_linear_1_233)"/>
<path d="M644.5 261L545 122H644.5H744L644.5 261Z" fill="url(#paint9_linear_1_233)"/>
<path d="M743.5 122L644 261H743.5H843L743.5 122Z" fill="url(#paint10_radial_1_233)"/>
<path d="M50.5 261L150 122H50.5H-49L50.5 261Z" fill="white"/>
<path d="M149.5 122L249 261H149.5H50L149.5 122Z" fill="white"/>
<path d="M-48.5 400L51 261H-48.5H-148L-48.5 400Z" fill="url(#paint11_linear_1_233)"/>
<path d="M248.5 261L348 400H248.5H149L248.5 261Z" fill="white"/>
<path d="M347.5 400L447 261H347.5H248L347.5 400Z" fill="white"/>
<path d="M446.5 261L546 400H446.5H347L446.5 261Z" fill="white"/>
<path d="M545.5 400L645 261H545.5H446L545.5 400Z" fill="url(#paint12_linear_1_233)"/>
<path d="M644.5 261L545 400H644.5H744L644.5 261Z" fill="url(#paint13_linear_1_233)"/>
<path d="M743.5 400L644 261H743.5H843L743.5 400Z" fill="url(#paint14_radial_1_233)"/>
<path d="M50.5 261L150 400H50.5H-49L50.5 261Z" fill="white"/>
<path d="M149.5 400L249 261H149.5H50L149.5 400Z" fill="url(#paint15_linear_1_233)"/>
<path d="M-49.5 400L50 539H-49.5H-149L-49.5 400Z" fill="url(#paint16_linear_1_233)"/>
<path d="M247.5 539L347 400H247.5H148L247.5 539Z" fill="url(#paint17_radial_1_233)"/>
<path d="M346.5 400L446 539H346.5H247L346.5 400Z" fill="url(#paint18_radial_1_233)"/>
<path d="M445.5 539L545 400H445.5H346L445.5 539Z" fill="white"/>
<path d="M544.5 400L644 539H544.5H445L544.5 400Z" fill="url(#paint19_radial_1_233)"/>
<path d="M643.5 539L544 400H643.5H743L643.5 539Z" fill="url(#paint20_linear_1_233)"/>
<path d="M742.5 400L643 539H742.5H842L742.5 400Z" fill="url(#paint21_linear_1_233)"/>
<path d="M49.5 539L149 400H49.5H-50L49.5 539Z" fill="url(#paint22_radial_1_233)"/>
<path d="M148.5 400L248 539H148.5H49L148.5 400Z" fill="url(#paint23_linear_1_233)"/>
</g>
<path d="M22 13H700V508H22V13Z" stroke="#5B5599" stroke-width="1.5"/>
<path d="M302.779 77.54L302.996 77.8643L302.346 78.7305L301.912 78.6221L301.045 78.2979H300.286L299.961 78.6221L300.178 79.0547L302.346 79.8125L302.888 80.2451L303.104 80.6777V81.9756L302.671 82.625L302.021 83.0576L301.045 83.2744L299.853 83.166L298.552 82.5166L298.335 82.084L298.985 81.3262L299.419 81.4346L300.395 81.8672H301.37L301.695 81.543L301.587 81.1104L299.636 80.4609L298.985 80.0283L298.66 79.7041L298.552 79.3789V78.1895L298.985 77.54L299.853 76.999H301.695L302.779 77.54ZM290.53 77.1074V83.166H289.121V76.999H290.422L290.53 77.1074ZM293.891 77.8643L295.517 80.0283L295.95 80.4609V76.999H297.359V83.166H296.167L295.191 81.9756L293.891 80.2451L293.349 79.5957V83.166H291.939V76.999H293.132L293.891 77.8643ZM311.126 78.7305V83.0576L310.909 83.166L309.717 83.0576V76.999H311.018L311.126 78.7305ZM317.196 78.1895L317.088 78.2979H315.354V83.0576L314.053 83.166L313.944 83.0576V78.2979H312.102V76.999H317.196V78.1895ZM319.473 80.8936L319.798 81.543L320.557 81.8672L321.532 81.543L321.749 81.2188L321.857 76.999H323.267V81.3262L322.941 82.1924L322.074 82.9492L321.315 83.166H319.798L318.714 82.625L318.172 81.8672L317.955 81.002V76.999H319.364L319.473 80.8936ZM329.229 77.2158L329.879 77.6484L329.771 78.0811L329.12 78.8379L328.036 78.2979H326.952L326.302 78.7305L325.868 79.5957V80.4609L326.302 81.3262L326.735 81.6514L327.603 81.8672L328.578 81.543L328.903 81.2188H329.229L329.771 81.7598L329.879 82.1924L329.12 82.8408L328.145 83.166H326.735L325.651 82.7334L324.784 81.8672L324.351 80.8936L324.242 79.7041L324.567 78.6221L325.218 77.6484L326.302 76.999L326.735 76.8906H328.361L329.229 77.2158ZM338.659 77.3232L339.31 77.8643L339.96 79.0547L340.068 80.1367L339.852 81.2188L339.201 82.1924L338.334 82.8408L337.358 83.166H336.058L334.757 82.625L333.89 81.6514L333.564 80.8936V79.1631L334.106 78.0811L335.082 77.2158L335.949 76.8906H337.575L338.659 77.3232ZM308.741 78.2979H306.898V83.0576H305.489V78.2979L303.755 78.4053L303.646 78.2979L303.538 77.1074L303.646 76.999H308.741V78.2979ZM332.372 83.0576H330.963V76.999H332.372V83.0576ZM346.572 83.0576H345.38L344.296 81.7598L343.32 80.4609L342.562 79.4873V83.0576H341.152V76.9014H342.449L343.754 78.6221L345.055 80.3525L345.163 76.8906H346.572V83.0576ZM354.269 77.1074L355.244 77.7568L355.678 78.2979L356.003 78.9463L356.111 79.3789V80.5693L355.678 81.6514L354.811 82.5166L353.835 82.9492L353.076 83.0576H350.475V76.8906H353.185L354.269 77.1074ZM379.417 80.8936L379.851 81.543L380.176 81.6514H380.935L381.477 81.3262L381.693 80.8936L381.802 80.1367V76.8906H383.211V81.002L382.887 81.9756L382.127 82.7334L381.151 83.0576H379.851L378.983 82.7334L378.441 82.2998L378.008 81.4346L377.899 81.1104L377.791 79.7041L377.899 76.8906H379.309L379.417 80.8936ZM389.498 77.3232L389.824 77.7568L388.956 78.7305L387.98 78.1895L387.33 78.0811L386.354 78.4053L385.812 79.2715V80.4609L386.246 81.2188L387.005 81.6514H387.872L388.739 81.2188L389.064 81.002L389.281 81.4346L389.715 81.6514L389.824 82.084L388.956 82.7334L387.872 83.0576H386.788L385.597 82.625L384.945 82.084L384.403 81.1104L384.187 80.3525L384.295 78.8379L384.945 77.7568L385.704 77.1074L386.463 76.7832H388.414L389.498 77.3232ZM401.205 76.7832L402.289 77.3232L402.506 77.7568L401.855 78.6221L401.422 78.5137L400.554 78.0811H399.796L399.146 78.4053L398.712 78.9463L398.495 79.4873V80.2451L398.93 81.1104L399.472 81.543L400.446 81.6514L401.205 81.3262L401.747 81.002L402.614 81.7598L402.397 82.1924L401.422 82.8408L400.012 83.0576L398.82 82.8408L397.736 82.084L397.086 81.002L396.978 80.6777V79.1631L397.411 78.0811L397.953 77.4316L398.82 76.8906L400.012 76.6748L401.205 76.7832ZM361.856 76.999V78.0811L361.748 78.1895H358.496L358.604 79.2715H361.314L361.423 79.3789V80.4609L361.314 80.5693H358.604V81.7598H361.856V82.9492H357.195L357.087 76.999L357.195 76.8906H361.748L361.856 76.999ZM370.096 78.0811H366.843V79.2715H369.661L369.77 79.3789V80.4609L369.661 80.5693H366.843V81.7598H370.203V82.9492H365.542V76.8906H370.096V78.0811ZM375.406 77.2158L376.382 78.0811L376.815 78.9463L376.924 79.4873V80.3525L376.599 81.3262L375.949 82.1924L375.081 82.7334L374.43 82.9492H371.18V76.8906H374.43L375.406 77.2158ZM394.81 78.0811L396.761 82.625V82.9492H395.352L394.81 81.7598V81.543L392.316 81.6514L391.774 82.8408L391.666 82.9492H390.366L390.474 82.4082L392.208 78.2979L392.858 76.7832H394.158L394.81 78.0811ZM405.107 79.5957V82.8408L404.999 82.9492H403.699L403.59 82.8408V76.7832H404.999L405.107 79.5957ZM411.069 76.999L412.153 77.9727L412.587 78.8379L412.695 79.2715V80.3525L412.263 81.543L411.611 82.2998L410.637 82.8408L410.202 82.9492H408.468L407.384 82.4082L406.517 81.4346L406.191 80.5693V79.1631L406.625 78.0811L407.167 77.4316L408.143 76.8906L408.901 76.6748H409.985L411.069 76.999ZM427.004 77.1074L427.329 77.3232L427.22 77.7568L426.68 78.5137L425.703 78.0811L424.836 77.9727L424.512 78.0811L424.402 78.6221L425.378 79.0547L426.68 79.4873L427.329 80.0283L427.546 80.5693V81.6514L427.112 82.2998L426.57 82.7334L425.812 82.9492H424.619L423.427 82.5166L422.776 82.084V81.7598L423.427 81.002L423.969 81.2188L424.728 81.543L425.486 81.6514L426.028 81.4346V80.8936L425.27 80.5693L423.969 80.1367L423.318 79.7041L422.992 79.2715L422.885 78.4053L423.21 77.4316L423.86 76.8906L424.402 76.6748H425.812L427.004 77.1074ZM430.039 80.7852L430.364 81.3262L430.798 81.543H431.557L432.099 81.2188L432.315 80.8936L432.424 76.7832H433.833V81.002L433.508 81.8672L432.966 82.4082L432.533 82.7334L431.665 82.9492H430.581L429.605 82.625L429.063 82.1924L428.63 81.3262L428.521 81.002L428.413 76.7832H429.93L430.039 80.7852ZM416.381 78.4053L417.682 80.1367H417.79V76.7832H419.2V82.8408H418.007L417.248 81.9756L415.947 80.2451L415.188 79.2715L415.08 82.8408H413.779V76.7832H415.08L416.381 78.4053ZM439.145 77.1074L439.687 77.6484L439.903 78.0811V79.5957L439.471 80.3525L438.603 80.8936L438.061 81.002L436.543 81.1104V82.7334L436.435 82.8408H435.134V76.7832H438.494L439.145 77.1074ZM445.54 77.8643L444.239 77.9727H442.179L442.288 79.0547L445.106 79.1631V80.3525H442.179V81.543H445.54V82.8408H440.879V76.7832H445.54V77.8643ZM450.852 76.999L451.394 77.54L451.72 78.1895V79.2715L451.285 80.1367L450.742 80.5693H450.526L451.285 81.7598L451.936 82.7334V82.8408H450.31L449.442 81.6514L448.9 80.8936L448.032 80.7852V82.7334L447.925 82.8408H446.624V76.7832L447.383 76.6748H449.876L450.852 76.999ZM454.212 82.8408H452.911V76.6748H454.212V82.8408ZM460.499 76.999L461.258 77.6484L461.8 78.6221L461.909 79.0547V80.3525L461.475 81.4346L460.825 82.1924L459.849 82.7334L459.523 82.8408H457.789L456.813 82.4082L456.054 81.7598L455.512 80.6777L455.404 80.3525V79.1631L455.729 78.1895L456.705 77.1074L457.572 76.6748L458.006 76.5664H459.307L460.499 76.999ZM467.437 77.1074L467.979 77.7568L468.087 78.0811V79.3789L467.545 80.2451L467.003 80.5693L467.221 81.002L468.305 82.625V82.7334H466.679L465.811 81.543L465.377 80.8936L464.401 80.7852V82.7334H462.991V76.6748H466.569L467.437 77.1074ZM335.516 78.6221L334.974 79.4873V80.4609L335.407 81.3262L336.274 81.8672H337.25L338.009 81.4346L338.551 80.5693V79.4873L338.117 78.7305L337.575 78.2979L337.358 78.1895H336.166L335.516 78.6221ZM351.884 81.7598H353.293L354.16 81.3262L354.594 80.6777L354.702 79.8125L354.485 79.0547L354.052 78.5137L353.401 78.1895H351.884V81.7598ZM372.696 81.7598H373.78L374.756 81.4346L375.298 80.7852L375.406 80.5693V79.2715L374.973 78.6221L374.322 78.1895L373.78 78.0811H372.696V81.7598ZM408.143 78.4053L407.709 79.1631L407.601 80.1367L407.926 80.8936L408.468 81.4346L409.335 81.7598L410.311 81.543L410.853 81.1104L411.179 80.4609V79.2715L410.853 78.6221L410.311 78.1895L409.877 77.9727H408.901L408.143 78.4053ZM457.572 78.1895L457.03 78.8379L456.813 79.8115L457.138 80.7852L457.789 81.4346L458.765 81.6514L459.523 81.4346L460.174 80.8936L460.499 79.9199L460.391 79.0547L459.957 78.4053L459.415 77.9727L459.09 77.8643H458.223L457.572 78.1895ZM392.75 80.3525H394.268L393.942 79.3789L393.616 78.6221H393.4L392.75 80.3525ZM436.543 79.8125H437.844L438.387 79.4873L438.494 79.2715V78.4053L438.169 78.0811L437.844 77.9727H436.543V79.8125ZM447.925 79.5957L448.142 79.7041L449.876 79.5957L450.31 79.0547L450.2 78.2979L449.768 77.9727H448.032L447.925 79.5957ZM464.401 79.5957H466.137L466.679 79.0547V78.4053L466.244 77.9727H464.401V79.5957ZM337.684 75.1602L338.334 75.4844L338.226 75.8096L337.25 76.458H336.166L336.816 75.4844L337.142 75.0518L337.684 75.1602ZM410.527 75.0518L411.069 75.376L410.527 75.917L410.094 76.2422L408.901 76.3506L409.117 75.8096L409.877 74.8359L410.527 75.0518ZM433.725 43.5703L436.218 49.4121L440.555 59.5811L442.179 63.3682L443.589 66.6133L443.697 66.9375L441.637 67.8037L439.471 68.7773L437.519 69.4258L435.459 69.8594L434.592 69.9668H431.015L428.63 69.5342L426.028 68.6689L422.992 67.2627L420.934 66.6133L419.524 66.3975H417.248L415.513 66.7217L414.971 66.8301L415.622 65.0986L416.814 62.3945L418.874 57.5264L420.5 53.7393L425.486 42.0557L426.245 40.2168H432.315L433.725 43.5703ZM369.661 40.2168L371.938 40.7568L373.997 41.623L375.515 42.4883L376.924 43.5703L378.008 44.5439L378.983 45.7334L379.851 46.9238L380.825 48.7627L381.585 51.0352L381.91 52.6572L382.019 53.5234V56.2275L381.693 58.2832L381.26 59.7979L380.609 61.4209L379.851 62.8271L378.767 64.3418L377.466 65.748L376.057 66.9375L374.105 68.1279L372.696 68.7773L371.07 69.3184L368.902 69.751L368.035 69.8594H365.108L362.94 69.5342L360.989 68.9932L359.038 68.1279L357.412 67.1543L356.22 66.1807L355.353 65.4229L354.377 64.2334L353.51 63.043L352.643 61.5283L351.884 59.5811L351.342 57.0928L351.233 56.0117V53.9561L351.559 51.6836L352.209 49.5205L353.293 47.248L354.377 45.7334L355.678 44.2188L356.87 43.2451L358.062 42.3799L359.58 41.5146L361.206 40.8652L362.615 40.4326L364.35 40.1084L365.542 40H367.818L369.661 40.2168ZM280.666 63.043L282.942 63.6924L283.051 63.8008V69.5342L280.449 69.4258L277.956 69.1016L275.463 68.5605L272.211 67.4785L270.043 66.5049L268.2 65.5312L267.875 65.3154V65.0986L270.585 63.9092L272.645 63.2598L274.162 62.9355L275.896 62.7188H278.281L280.666 63.043ZM453.778 63.6924H468.195V69.4268H447.274V40.541H453.778V63.6924ZM349.607 46.3828H340.936V69.3555L334.432 69.3184V68.8857L334.54 46.3828H325.651V40.541H349.607V46.3828ZM295.517 63.584H309.825V69.3184H289.013V40.541H295.517V63.584ZM321.315 69.3184H314.812V40.541H321.315V69.3184ZM403.373 40.8652L404.999 41.4062L406.625 42.2715L407.709 43.1377L408.575 44.0029L409.335 45.1924L409.877 46.3828L410.311 47.8975L410.419 48.7627V51.5762L409.985 53.5234L409.335 55.0381L408.468 56.2275L407.709 57.0928L406.407 58.0674L404.565 59.04H404.349L405.649 60.9883L406.842 62.7188L411.069 68.8857L411.286 69.3184H403.699L400.554 64.5576L397.474 60.0781L392.75 60.1221V69.3184H386.246V40.541H401.313L403.373 40.8652ZM363.591 46.3828L361.856 47.248L360.772 48.1143L360.014 48.8711L359.038 50.3857L358.496 51.5762L358.062 53.1982L357.954 53.9561V55.9033L358.279 57.6338L358.93 59.2568L359.688 60.4473L360.664 61.5283L361.423 62.2861L362.832 63.1514L364.35 63.6924L365.325 63.9092H368.144L369.77 63.4756L371.287 62.7188L372.696 61.6367L373.78 60.3389L374.647 58.7158L375.081 57.418L375.298 56.1191V53.8477L374.973 52.2246L374.43 50.8184L373.78 49.6289L372.804 48.4385L371.829 47.5732L370.42 46.707L368.902 46.166L367.818 45.9502H365.325L363.591 46.3828ZM428.088 50.4941L424.728 58.7158L423.97 60.5547L423.895 60.71L426.57 61.8535L428.738 62.8271L430.581 63.3682L431.991 63.584H434.05L435.459 63.3682L435.134 62.3945L433.617 58.6074L431.665 53.8477L429.93 49.6289L429.28 48.0059H429.172L428.088 50.4941ZM281.316 51.9004L283.051 52.4414L283.159 59.5811V59.7119L280.883 58.8242L278.823 58.2832L278.064 58.1748H275.788L273.62 58.6074L271.886 59.2568L269.826 60.2305L267.55 60.9873L264.84 61.5283L263.105 61.6367L262.238 60.8799L261.263 59.7979L260.07 58.3916L258.661 56.4443L257.252 54.0635V53.9199L257.794 53.9561L259.42 54.4971L260.829 54.8213L261.696 54.9297H263.647L265.49 54.6045L267.441 53.9561L269.718 52.874L271.452 52.2246L273.62 51.6836L275.029 51.4678H278.932L281.316 51.9004ZM392.642 51.6836L392.75 54.4971H400.012L401.422 54.1719L402.397 53.6309L403.048 53.0908L403.59 52.333L403.915 51.3594V49.4121L403.481 48.2217L402.614 47.248L401.096 46.4912L399.796 46.2744H392.75L392.642 51.6836ZM280.666 41.082L282.726 41.623L283.051 41.7305L283.159 48.9795L282.617 48.8711L281.1 48.2217L279.69 47.7891L277.631 47.4648H276.005L274.162 47.7891L272.211 48.4385L269.935 49.5205L267.333 50.3857L265.057 50.8184L264.189 50.9268H261.046L257.794 50.3857L255.734 49.8447L255.301 49.4121L254.65 47.1406L254.217 44.9766L254 43.2451V41.7305L254.65 41.8389L257.252 43.0293L258.878 43.6787L260.612 44.1113L261.371 44.2188H263.973L265.599 43.8945L267.225 43.3535L270.043 42.0557L272.319 41.2979L274.379 40.8652L275.354 40.7568H278.606L280.666 41.082Z" fill="#5B5599"/>
<line x1="99" y1="456.5" x2="263" y2="456.5" stroke="black"/>
<line x1="459" y1="456.5" x2="623" y2="456.5" stroke="black"/>
<defs>
<linearGradient id="paint0_linear_1_233" x1="-38" y1="-17" x2="117" y2="213" gradientUnits="userSpaceOnUse">
<stop stop-color="white"/>
<stop offset="1" stop-color="#D1CDFC"/>
</linearGradient>
<radialGradient id="paint1_radial_1_233" cx="0" cy="0" r="1" gradientUnits="userSpaceOnUse" gradientTransform="translate(348.5 52.5) rotate(-90) scale(69.5 99.5)">
<stop stop-color="white"/>
<stop offset="1" stop-color="#F6F6F6"/>
</radialGradient>
<linearGradient id="paint2_linear_1_233" x1="465.5" y1="103" x2="903" y2="-58.5" gradientUnits="userSpaceOnUse">
<stop stop-color="white"/>
<stop offset="0.52647" stop-color="#E7E5FD"/>
<stop offset="1" stop-color="#D1CDFC"/>
</linearGradient>
<linearGradient id="paint3_linear_1_233" x1="636" y1="122" x2="580.5" y2="0.500003" gradientUnits="userSpaceOnUse">
<stop stop-color="white"/>
<stop offset="1" stop-color="#F3F3F3"/>
</linearGradient>
<linearGradient id="paint4_linear_1_233" x1="735" y1="-17" x2="695.5" y2="185" gradientUnits="userSpaceOnUse">
<stop stop-color="white"/>
<stop offset="1" stop-color="#D1CDFC"/>
</linearGradient>
<radialGradient id="paint5_radial_1_233" cx="0" cy="0" r="1" gradientUnits="userSpaceOnUse" gradientTransform="translate(51.5 52.5) rotate(90) scale(69.5 99.5)">
<stop stop-color="white"/>
<stop offset="1" stop-color="#F6F6F6"/>
</radialGradient>
<linearGradient id="paint6_linear_1_233" x1="160" y1="-17" x2="304" y2="397.5" gradientUnits="userSpaceOnUse">
<stop stop-color="white"/>
<stop offset="1" stop-color="#D1CDFC"/>
</linearGradient>
<linearGradient id="paint7_linear_1_233" x1="-39" y1="261" x2="128" y2="96" gradientUnits="userSpaceOnUse">
<stop stop-color="white"/>
<stop offset="1" stop-color="#D1CDFC"/>
</linearGradient>
<linearGradient id="paint8_linear_1_233" x1="555" y1="261" x2="610.5" y2="139.5" gradientUnits="userSpaceOnUse">
<stop stop-color="white"/>
<stop offset="1" stop-color="#F3F3F3"/>
</linearGradient>
<linearGradient id="paint9_linear_1_233" x1="635" y1="122" x2="579.5" y2="243.5" gradientUnits="userSpaceOnUse">
<stop stop-color="white"/>
<stop offset="1" stop-color="#F3F3F3"/>
</linearGradient>
<radialGradient id="paint10_radial_1_233" cx="0" cy="0" r="1" gradientUnits="userSpaceOnUse" gradientTransform="translate(743.5 191.5) rotate(90) scale(69.5 99.5)">
<stop stop-color="white"/>
<stop offset="1" stop-color="#F6F6F6"/>
</radialGradient>
<linearGradient id="paint11_linear_1_233" x1="-39" y1="261" x2="16.5" y2="382.5" gradientUnits="userSpaceOnUse">
<stop stop-color="white"/>
<stop offset="1" stop-color="#F3F3F3"/>
</linearGradient>
<linearGradient id="paint12_linear_1_233" x1="555" y1="261" x2="610.5" y2="382.5" gradientUnits="userSpaceOnUse">
<stop stop-color="white"/>
<stop offset="1" stop-color="#F3F3F3"/>
</linearGradient>
<linearGradient id="paint13_linear_1_233" x1="635" y1="400" x2="472" y2="185.5" gradientUnits="userSpaceOnUse">
<stop stop-color="white"/>
<stop offset="1" stop-color="#D1CDFC"/>
</linearGradient>
<radialGradient id="paint14_radial_1_233" cx="0" cy="0" r="1" gradientUnits="userSpaceOnUse" gradientTransform="translate(743.5 330.5) rotate(-90) scale(69.5 99.5)">
<stop stop-color="white"/>
<stop offset="1" stop-color="#F6F6F6"/>
</radialGradient>
<linearGradient id="paint15_linear_1_233" x1="159" y1="261" x2="214.5" y2="382.5" gradientUnits="userSpaceOnUse">
<stop stop-color="white"/>
<stop offset="1" stop-color="#F3F3F3"/>
</linearGradient>
<linearGradient id="paint16_linear_1_233" x1="-40" y1="539" x2="138.5" y2="480.5" gradientUnits="userSpaceOnUse">
<stop stop-color="white"/>
<stop offset="1" stop-color="#D1CDFC"/>
</linearGradient>
<radialGradient id="paint17_radial_1_233" cx="0" cy="0" r="1" gradientUnits="userSpaceOnUse" gradientTransform="translate(247.5 469.5) rotate(-90) scale(69.5 99.5)">
<stop stop-color="white"/>
<stop offset="1" stop-color="#F6F6F6"/>
</radialGradient>
<radialGradient id="paint18_radial_1_233" cx="0" cy="0" r="1" gradientUnits="userSpaceOnUse" gradientTransform="translate(346.5 469.5) rotate(90) scale(69.5 99.5)">
<stop stop-color="white"/>
<stop offset="1" stop-color="#F6F6F6"/>
</radialGradient>
<radialGradient id="paint19_radial_1_233" cx="0" cy="0" r="1" gradientUnits="userSpaceOnUse" gradientTransform="translate(544.5 469.5) rotate(90) scale(69.5 99.5)">
<stop stop-color="white"/>
<stop offset="1" stop-color="#F6F6F6"/>
</radialGradient>
<linearGradient id="paint20_linear_1_233" x1="634" y1="400" x2="578.5" y2="521.5" gradientUnits="userSpaceOnUse">
<stop stop-color="white"/>
<stop offset="1" stop-color="#F3F3F3"/>
</linearGradient>
<linearGradient id="paint21_linear_1_233" x1="716" y1="539" x2="767.5" y2="202" gradientUnits="userSpaceOnUse">
<stop stop-color="white"/>
<stop offset="1" stop-color="#D1CDFC"/>
</linearGradient>
<radialGradient id="paint22_radial_1_233" cx="0" cy="0" r="1" gradientUnits="userSpaceOnUse" gradientTransform="translate(32.75 449.75) rotate(156.831) scale(126.448 181.03)">
<stop stop-color="white"/>
<stop offset="1" stop-color="#EFEDFF"/>
</radialGradient>
<linearGradient id="paint23_linear_1_233" x1="158" y1="539" x2="213.5" y2="417.5" gradientUnits="userSpaceOnUse">
<stop stop-color="white"/>
<stop offset="1" stop-color="#F3F3F3"/>
</linearGradient>
</defs>
</svg>
