<svg width="25" height="25" viewBox="0 0 25 25" fill="none" xmlns="http://www.w3.org/2000/svg">
<path d="M10.1341 18.2413C11.9329 18.2409 13.6798 17.6387 15.0967 16.5306L19.5517 20.9856L20.9846 19.5526L16.5297 15.0977C17.6384 13.6806 18.2409 11.9333 18.2413 10.134C18.2413 5.6639 14.6042 2.02679 10.1341 2.02679C5.66397 2.02679 2.02686 5.6639 2.02686 10.134C2.02686 14.6042 5.66397 18.2413 10.1341 18.2413ZM10.1341 4.0536C13.4875 4.0536 16.2145 6.78068 16.2145 10.134C16.2145 13.4874 13.4875 16.2145 10.1341 16.2145C6.78074 16.2145 4.05367 13.4874 4.05367 10.134C4.05367 6.78068 6.78074 4.0536 10.1341 4.0536Z" fill="#5D5D5D"/>
</svg>
