<svg width="16" height="16" viewBox="0 0 16 16" fill="none" xmlns="http://www.w3.org/2000/svg">
<path d="M22.582 18.7207L24.5098 19.2656L24.6016 19.3564V24.1729L22.3984 24.082L20.2871 23.8096L18.1758 23.3545L15.4219 22.4463L13.5859 21.6279L12.0254 20.8105L11.75 20.6289V20.4473L14.0449 19.4473L15.7891 18.9023L17.0742 18.6289L18.543 18.4473H20.5625L22.582 18.7207ZM23.1328 9.36035L24.6016 9.81445L24.6934 15.8125V15.9219L22.7656 15.1758L21.0215 14.7217L20.3789 14.6309H18.4512L16.6152 14.9941L15.1465 15.54L13.4023 16.3574L11.4746 16.9932L9.17969 17.4482L7.71094 17.5391L6.97656 16.9023L6.15039 15.9941L5.14062 14.8125L3.94727 13.1768L2.75391 11.1777V11.0566L3.21289 11.0869L4.58984 11.541L5.7832 11.8135L6.51758 11.9043H8.16992L9.73047 11.6318L11.3828 11.0869L13.3105 10.1777L14.7793 9.63281L16.6152 9.17871L17.8086 8.99707H21.1133L23.1328 9.36035ZM22.582 0.272461L24.3262 0.726562L24.6016 0.818359L24.6934 6.90625L24.2344 6.81543L22.9492 6.27051L21.7559 5.90723L20.0117 5.63379H18.6348L17.0742 5.90723L15.4219 6.45215L13.4941 7.36133L11.291 8.08789L9.36328 8.45117L8.62891 8.54199H5.9668L3.21289 8.08789L1.46875 7.63379L1.10156 7.26953L0.550781 5.36133L0.183594 3.54395L0 2.08984V0.818359L0.550781 0.90918L2.75391 1.9082L4.13086 2.4541L5.59961 2.81738L6.24219 2.9082H8.44531L9.82227 2.63574L11.1992 2.18066L13.5859 1.09082L15.5137 0.454102L17.2578 0.0908203L18.084 0H20.8379L22.582 0.272461Z" fill="#373636"/>
</svg>
