<svg width="340" height="102" viewBox="0 0 340 102" fill="none" xmlns="http://www.w3.org/2000/svg">
<path d="M15.65 9.1C19.3167 9.1 22.5333 9.81667 25.3 11.25C28.1 12.6833 30.25 14.7333 31.75 17.4C33.2833 20.0333 34.05 23.1 34.05 26.6C34.05 30.1 33.2833 33.1667 31.75 35.8C30.25 38.4 28.1 40.4167 25.3 41.85C22.5333 43.2833 19.3167 44 15.65 44H3.45V9.1H15.65ZM15.4 38.05C19.0667 38.05 21.9 37.05 23.9 35.05C25.9 33.05 26.9 30.2333 26.9 26.6C26.9 22.9667 25.9 20.1333 23.9 18.1C21.9 16.0333 19.0667 15 15.4 15H10.45V38.05H15.4ZM46.2898 9.1V44H39.2898V9.1H46.2898ZM78.6559 19.9C78.6559 21.7667 78.2059 23.5167 77.3059 25.15C76.4392 26.7833 75.0559 28.1 73.1559 29.1C71.2892 30.1 68.9225 30.6 66.0559 30.6H60.2059V44H53.2059V9.1H66.0559C68.7559 9.1 71.0559 9.56667 72.9559 10.5C74.8559 11.4333 76.2725 12.7167 77.2059 14.35C78.1725 15.9833 78.6559 17.8333 78.6559 19.9ZM65.7559 24.95C67.6892 24.95 69.1225 24.5167 70.0559 23.65C70.9892 22.75 71.4559 21.5 71.4559 19.9C71.4559 16.5 69.5559 14.8 65.7559 14.8H60.2059V24.95H65.7559ZM90.6258 38.45H102.126V44H83.6258V9.1H90.6258V38.45ZM122.775 44.35C119.508 44.35 116.508 43.5833 113.775 42.05C111.042 40.5167 108.875 38.4 107.275 35.7C105.675 32.9667 104.875 29.8833 104.875 26.45C104.875 23.05 105.675 20 107.275 17.3C108.875 14.5667 111.042 12.4333 113.775 10.9C116.508 9.36667 119.508 8.6 122.775 8.6C126.075 8.6 129.075 9.36667 131.775 10.9C134.508 12.4333 136.658 14.5667 138.225 17.3C139.825 20 140.625 23.05 140.625 26.45C140.625 29.8833 139.825 32.9667 138.225 35.7C136.658 38.4 134.508 40.5167 131.775 42.05C129.042 43.5833 126.042 44.35 122.775 44.35ZM122.775 38.1C124.875 38.1 126.725 37.6333 128.325 36.7C129.925 35.7333 131.175 34.3667 132.075 32.6C132.975 30.8333 133.425 28.7833 133.425 26.45C133.425 24.1167 132.975 22.0833 132.075 20.35C131.175 18.5833 129.925 17.2333 128.325 16.3C126.725 15.3667 124.875 14.9 122.775 14.9C120.675 14.9 118.808 15.3667 117.175 16.3C115.575 17.2333 114.325 18.5833 113.425 20.35C112.525 22.0833 112.075 24.1167 112.075 26.45C112.075 28.7833 112.525 30.8333 113.425 32.6C114.325 34.3667 115.575 35.7333 117.175 36.7C118.808 37.6333 120.675 38.1 122.775 38.1ZM183.883 9.1V44H176.883V21.3L167.533 44H162.233L152.833 21.3V44H145.833V9.1H153.783L164.883 35.05L175.983 9.1H183.883ZM212.204 37.35H198.304L196.004 44H188.654L201.204 9.05H209.354L221.904 44H214.504L212.204 37.35ZM210.304 31.75L205.254 17.15L200.204 31.75H210.304ZM238.645 44.35C236.211 44.35 234.011 43.9333 232.045 43.1C230.111 42.2667 228.578 41.0667 227.445 39.5C226.311 37.9333 225.728 36.0833 225.695 33.95H233.195C233.295 35.3833 233.795 36.5167 234.695 37.35C235.628 38.1833 236.895 38.6 238.495 38.6C240.128 38.6 241.411 38.2167 242.345 37.45C243.278 36.65 243.745 35.6167 243.745 34.35C243.745 33.3167 243.428 32.4667 242.795 31.8C242.161 31.1333 241.361 30.6167 240.395 30.25C239.461 29.85 238.161 29.4167 236.495 28.95C234.228 28.2833 232.378 27.6333 230.945 27C229.545 26.3333 228.328 25.35 227.295 24.05C226.295 22.7167 225.795 20.95 225.795 18.75C225.795 16.6833 226.311 14.8833 227.345 13.35C228.378 11.8167 229.828 10.65 231.695 9.85C233.561 9.01667 235.695 8.6 238.095 8.6C241.695 8.6 244.611 9.48333 246.845 11.25C249.111 12.9833 250.361 15.4167 250.595 18.55H242.895C242.828 17.35 242.311 16.3667 241.345 15.6C240.411 14.8 239.161 14.4 237.595 14.4C236.228 14.4 235.128 14.75 234.295 15.45C233.495 16.15 233.095 17.1667 233.095 18.5C233.095 19.4333 233.395 20.2167 233.995 20.85C234.628 21.45 235.395 21.95 236.295 22.35C237.228 22.7167 238.528 23.15 240.195 23.65C242.461 24.3167 244.311 24.9833 245.745 25.65C247.178 26.3167 248.411 27.3167 249.445 28.65C250.478 29.9833 250.995 31.7333 250.995 33.9C250.995 35.7667 250.511 37.5 249.545 39.1C248.578 40.7 247.161 41.9833 245.295 42.95C243.428 43.8833 241.211 44.35 238.645 44.35Z" fill="#F8C013"/>
<path d="M177.656 54.4112H181.24L184.142 54.7513L187.726 55.6016L190.969 56.9621L193.358 58.3226L195.577 60.0232L197.284 61.5538L198.82 63.4244L200.186 65.2951L201.722 68.1861L202.917 71.7574L203.429 74.3083L203.599 75.6688V79.9203L203.087 83.1515L202.404 85.5324L201.38 88.0833L200.186 90.2941L198.479 92.6749L196.431 94.8857L194.212 96.7564L191.14 98.6271L188.921 99.6474L186.361 100.498L182.947 101.178L181.582 101.348H176.973L173.56 100.838L170.487 99.9875L167.415 98.6271L164.855 97.0965L162.978 95.566L161.612 94.3755L160.076 92.5049L158.711 90.6342L157.345 88.2533L156.15 85.1922L155.297 81.2808L155.126 79.5802V76.3491L155.638 72.7778L156.662 69.3766L158.369 65.8053L160.076 63.4244L162.124 61.0436L164.002 59.513L165.879 58.1525L168.269 56.792L170.829 55.7717L173.048 55.0914L175.778 54.5813L177.656 54.4112ZM177.315 63.7645L174.584 64.4448L171.853 65.8053L170.146 67.1658L168.951 68.3562L167.415 70.7371L166.562 72.6077L165.879 75.1586L165.708 76.3491V79.4102L166.22 82.1311L167.244 84.6821L168.439 86.5527L169.975 88.2533L171.17 89.4438L173.389 90.8042L175.778 91.6546L177.315 91.9947H181.752L184.312 91.3144L186.702 90.124L188.921 88.4234L190.628 86.3827L191.993 83.8317L192.676 81.791L193.017 79.7503V76.179L192.505 73.6281L191.652 71.4173L190.628 69.5466L189.091 67.676L187.555 66.3155L185.337 64.955L182.947 64.1047L181.24 63.7645H177.315Z" fill="#F8C013"/>
<path d="M210.256 55.2615H233.98L237.223 55.7717L239.783 56.622L242.344 57.9825L244.05 59.343L245.416 60.7035L246.611 62.5741L247.464 64.4448L248.147 66.8256L248.317 68.1861V72.6077L247.635 75.6688L246.611 78.0497L245.245 79.9203L244.05 81.2808L242.002 82.8114L239.101 84.3419H238.759L240.807 87.403L242.685 90.124L249.341 99.8175L249.683 100.498H237.735L232.785 93.015L227.934 85.9735L220.497 86.0425V100.498H210.256V55.2615ZM220.497 64.2747L220.326 72.7778L220.497 77.1994H231.932L234.151 76.6892L235.687 75.8389L236.711 74.9886L237.564 73.7981L238.077 72.2676V69.2065L237.394 67.3358L236.028 65.8053L233.639 64.6149L231.591 64.2747H220.497Z" fill="#F8C013"/>
<path d="M273.237 54.7513H282.795L285.013 60.0232L295.766 85.1922L298.326 91.1444L300.545 96.2462L300.716 96.7564L297.473 98.1169L294.059 99.6474L290.987 100.668L287.744 101.348L286.379 101.518H280.746L276.991 100.838L272.895 99.4774L268.116 97.2666L264.873 96.2462L262.654 95.9061H259.07L256.339 96.4163L255.486 96.5863L256.51 93.8653L258.387 89.6138L261.63 81.9611L264.191 76.0089L272.042 57.6424L273.237 54.7513ZM277.845 66.9957L276.138 70.9071L270.847 83.8317L269.652 86.7228L269.536 86.9662L273.749 88.7635L277.162 90.2941L280.064 91.1444L282.283 91.4845H285.525L287.744 91.1444L287.232 89.6138L284.843 83.6617L281.771 76.179L279.04 69.5466L278.016 66.9957H277.845Z" fill="#F8C013"/>
<path d="M114.846 55.2615H152.566V64.4448H138.912V100.557L128.671 100.498V99.8175L128.842 64.4448H114.846V55.2615Z" fill="#F8C013"/>
<path d="M306.348 55.2615H316.589V91.6546H339.29V100.668H306.348V55.2615Z" fill="#F8C013"/>
<path d="M57.1561 55.2615H67.3969V91.4845H89.9266V100.498H57.1561V55.2615Z" fill="#F8C013"/>
<path d="M35.6505 55.6016H40.7709L44.0138 56.1118L47.2567 56.9621L47.7688 57.1322L47.9394 68.5263L47.086 68.3562L44.6965 67.3358L42.4777 66.6556L39.2348 66.1454H36.6746L33.773 66.6556L30.7008 67.676L27.1165 69.3766L23.0202 70.737L19.4359 71.4173L18.0705 71.5874H13.1208L8.0004 70.737L4.75749 69.8867L4.07477 69.2065L3.05069 65.6352L2.36797 62.234L2.02661 59.513V57.1322L3.05069 57.3022L7.147 59.1729L9.70719 60.1933L12.4381 60.8735L13.6328 61.0436H17.7291L20.2893 60.5334L22.8495 59.6831L27.2872 57.6424L30.8715 56.4519L34.1144 55.7717L35.6505 55.6016Z" fill="#F8C013"/>
<path d="M97.7779 55.2615H108.019V100.498H97.7779V55.2615Z" fill="#F8C013"/>
<path d="M35.1385 72.4377H41.2829L45.0379 73.1179L47.7688 73.9682L47.9394 85.1922V85.3976L44.3552 84.0018L41.1122 83.1515L39.9175 82.9814H36.3332L32.9196 83.6617L30.1887 84.6821L26.9458 86.2126L23.3616 87.403L19.0946 88.2533L16.3637 88.4234L14.9983 87.233L13.4621 85.5324L11.5847 83.3216L9.36584 80.2605L7.147 76.5191V76.2921L8.0004 76.3491L10.5606 77.1994L12.7794 77.7096L14.1449 77.8796H17.2171L20.1187 77.3694L23.1909 76.3491L26.7752 74.6485L29.506 73.6281L32.9196 72.7778L35.1385 72.4377Z" fill="#F8C013"/>
<path d="M36.5039 90.124H40.2588L44.0138 90.6342L47.5981 91.6546L47.7688 91.8246V100.838L43.6724 100.668L39.7468 100.158L35.8212 99.3073L30.7008 97.6067L27.2872 96.0761L24.3856 94.5456L23.8736 94.2055V93.8654L28.1406 91.9947L31.3835 90.9743L33.773 90.4641L36.5039 90.124Z" fill="#F8C013"/>
</svg>
