<svg width="344" height="131" viewBox="0 0 344 131" fill="none" xmlns="http://www.w3.org/2000/svg">
<g filter="url(#filter0_d_243_32927)">
<path d="M16.2 9.1C19.8667 9.1 23.0834 9.81667 25.8501 11.25C28.6501 12.6833 30.8001 14.7333 32.3001 17.4C33.8334 20.0333 34.6001 23.1 34.6001 26.6C34.6001 30.1 33.8334 33.1667 32.3001 35.8C30.8001 38.4 28.6501 40.4167 25.8501 41.85C23.0834 43.2833 19.8667 44 16.2 44H4.00005V9.1H16.2ZM15.9501 38.05C19.6167 38.05 22.45 37.05 24.45 35.05C26.4501 33.05 27.4501 30.2333 27.4501 26.6C27.4501 22.9667 26.4501 20.1333 24.45 18.1C22.45 16.0333 19.6167 15 15.9501 15H11V38.05H15.9501ZM46.8399 9.1V44H39.8399V9.1H46.8399ZM79.2059 19.9C79.2059 21.7667 78.7559 23.5167 77.8559 25.15C76.9892 26.7833 75.6059 28.1 73.7059 29.1C71.8392 30.1 69.4726 30.6 66.6059 30.6H60.7559V44H53.7559V9.1H66.6059C69.3059 9.1 71.6059 9.56667 73.5059 10.5C75.4059 11.4333 76.8226 12.7167 77.7559 14.35C78.7226 15.9833 79.2059 17.8333 79.2059 19.9ZM66.3059 24.95C68.2392 24.95 69.6726 24.5167 70.6059 23.65C71.5392 22.75 72.0059 21.5 72.0059 19.9C72.0059 16.5 70.1059 14.8 66.3059 14.8H60.7559V24.95H66.3059ZM91.1758 38.45H102.676V44H84.1758V9.1H91.1758V38.45ZM123.325 44.35C120.058 44.35 117.058 43.5833 114.325 42.05C111.592 40.5167 109.425 38.4 107.825 35.7C106.225 32.9667 105.425 29.8833 105.425 26.45C105.425 23.05 106.225 20 107.825 17.3C109.425 14.5667 111.592 12.4333 114.325 10.9C117.058 9.36667 120.058 8.6 123.325 8.6C126.625 8.6 129.625 9.36667 132.325 10.9C135.058 12.4333 137.208 14.5667 138.775 17.3C140.375 20 141.175 23.05 141.175 26.45C141.175 29.8833 140.375 32.9667 138.775 35.7C137.208 38.4 135.058 40.5167 132.325 42.05C129.592 43.5833 126.592 44.35 123.325 44.35ZM123.325 38.1C125.425 38.1 127.275 37.6333 128.875 36.7C130.475 35.7333 131.725 34.3667 132.625 32.6C133.525 30.8333 133.975 28.7833 133.975 26.45C133.975 24.1167 133.525 22.0833 132.625 20.35C131.725 18.5833 130.475 17.2333 128.875 16.3C127.275 15.3667 125.425 14.9 123.325 14.9C121.225 14.9 119.358 15.3667 117.725 16.3C116.125 17.2333 114.875 18.5833 113.975 20.35C113.075 22.0833 112.625 24.1167 112.625 26.45C112.625 28.7833 113.075 30.8333 113.975 32.6C114.875 34.3667 116.125 35.7333 117.725 36.7C119.358 37.6333 121.225 38.1 123.325 38.1ZM184.433 9.1V44H177.433V21.3L168.083 44H162.783L153.383 21.3V44H146.383V9.1H154.333L165.433 35.05L176.533 9.1H184.433ZM212.754 37.35H198.854L196.554 44H189.204L201.754 9.05H209.904L222.454 44H215.054L212.754 37.35ZM210.854 31.75L205.804 17.15L200.754 31.75H210.854ZM239.195 44.35C236.761 44.35 234.561 43.9333 232.595 43.1C230.661 42.2667 229.128 41.0667 227.995 39.5C226.861 37.9333 226.278 36.0833 226.245 33.95H233.745C233.845 35.3833 234.345 36.5167 235.245 37.35C236.178 38.1833 237.445 38.6 239.045 38.6C240.678 38.6 241.961 38.2167 242.895 37.45C243.828 36.65 244.295 35.6167 244.295 34.35C244.295 33.3167 243.978 32.4667 243.345 31.8C242.711 31.1333 241.911 30.6167 240.945 30.25C240.011 29.85 238.711 29.4167 237.045 28.95C234.778 28.2833 232.928 27.6333 231.495 27C230.095 26.3333 228.878 25.35 227.845 24.05C226.845 22.7167 226.345 20.95 226.345 18.75C226.345 16.6833 226.861 14.8833 227.895 13.35C228.928 11.8167 230.378 10.65 232.245 9.85C234.111 9.01667 236.245 8.6 238.645 8.6C242.245 8.6 245.161 9.48333 247.395 11.25C249.661 12.9833 250.911 15.4167 251.145 18.55H243.445C243.378 17.35 242.861 16.3667 241.895 15.6C240.961 14.8 239.711 14.4 238.145 14.4C236.778 14.4 235.678 14.75 234.845 15.45C234.045 16.15 233.645 17.1667 233.645 18.5C233.645 19.4333 233.945 20.2167 234.545 20.85C235.178 21.45 235.945 21.95 236.845 22.35C237.778 22.7167 239.078 23.15 240.745 23.65C243.011 24.3167 244.861 24.9833 246.295 25.65C247.728 26.3167 248.961 27.3167 249.995 28.65C251.028 29.9833 251.545 31.7333 251.545 33.9C251.545 35.7667 251.061 37.5 250.095 39.1C249.128 40.7 247.711 41.9833 245.845 42.95C243.978 43.8833 241.761 44.35 239.195 44.35Z" fill="#F8C013"/>
</g>
<g clip-path="url(#clip0_243_32927)">
<g filter="url(#filter1_d_243_32927)">
<path d="M178.206 54.4112H181.79L184.692 54.7513L188.276 55.6016L191.519 56.9621L193.909 58.3226L196.127 60.0232L197.834 61.5538L199.37 63.4244L200.736 65.2951L202.272 68.1861L203.467 71.7574L203.979 74.3083L204.149 75.6688V79.9203L203.637 83.1515L202.955 85.5324L201.93 88.0833L200.736 90.2941L199.029 92.6749L196.981 94.8857L194.762 96.7564L191.69 98.6271L189.471 99.6474L186.911 100.498L183.497 101.178L182.132 101.348H177.523L174.11 100.838L171.037 99.9875L167.965 98.6271L165.405 97.0965L163.528 95.566L162.162 94.3755L160.626 92.5049L159.261 90.6342L157.895 88.2533L156.7 85.1922L155.847 81.2808L155.676 79.5802V76.3491L156.188 72.7778L157.212 69.3766L158.919 65.8053L160.626 63.4244L162.674 61.0436L164.552 59.513L166.429 58.1525L168.819 56.792L171.379 55.7717L173.598 55.0914L176.329 54.5813L178.206 54.4112ZM177.865 63.7645L175.134 64.4448L172.403 65.8053L170.696 67.1658L169.501 68.3562L167.965 70.7371L167.112 72.6077L166.429 75.1586L166.258 76.3491V79.4102L166.77 82.1311L167.795 84.6821L168.989 86.5527L170.525 88.2533L171.72 89.4438L173.939 90.8042L176.329 91.6546L177.865 91.9947H182.302L184.863 91.3144L187.252 90.124L189.471 88.4234L191.178 86.3827L192.543 83.8317L193.226 81.791L193.567 79.7503V76.179L193.055 73.6281L192.202 71.4173L191.178 69.5466L189.642 67.676L188.105 66.3155L185.887 64.955L183.497 64.1047L181.79 63.7645H177.865Z" fill="#F8C013"/>
<path d="M210.806 55.2615H234.53L237.773 55.7717L240.333 56.622L242.894 57.9825L244.6 59.343L245.966 60.7035L247.161 62.5741L248.014 64.4448L248.697 66.8256L248.867 68.1861V72.6077L248.185 75.6688L247.161 78.0497L245.795 79.9203L244.6 81.2808L242.552 82.8114L239.651 84.3419H239.309L241.357 87.403L243.235 90.124L249.891 99.8175L250.233 100.498H238.285L233.336 93.015L228.484 85.9735L221.047 86.0425V100.498H210.806V55.2615ZM221.047 64.2747L220.876 72.7778L221.047 77.1994H232.482L234.701 76.6892L236.237 75.8389L237.261 74.9886L238.115 73.7981L238.627 72.2676V69.2065L237.944 67.3358L236.578 65.8053L234.189 64.6149L232.141 64.2747H221.047Z" fill="#F8C013"/>
<path d="M273.787 54.7513H283.345L285.563 60.0232L296.316 85.1922L298.876 91.1444L301.095 96.2462L301.266 96.7564L298.023 98.1169L294.609 99.6474L291.537 100.668L288.294 101.348L286.929 101.518H281.296L277.542 100.838L273.445 99.4774L268.666 97.2666L265.423 96.2462L263.204 95.9061H259.62L256.889 96.4163L256.036 96.5863L257.06 93.8653L258.937 89.6138L262.18 81.9611L264.741 76.0089L272.592 57.6424L273.787 54.7513ZM278.395 66.9957L276.688 70.9071L271.397 83.8317L270.202 86.7228L270.086 86.9662L274.299 88.7635L277.712 90.2941L280.614 91.1444L282.833 91.4845H286.076L288.294 91.1444L287.782 89.6138L285.393 83.6617L282.321 76.179L279.59 69.5466L278.566 66.9957H278.395Z" fill="#F8C013"/>
<path d="M115.396 55.2615H153.116V64.4448H139.462V100.557L129.221 100.498V99.8175L129.392 64.4448H115.396V55.2615Z" fill="#F8C013"/>
<path d="M306.898 55.2615H317.139V91.6546H339.84V100.668H306.898V55.2615Z" fill="#F8C013"/>
<path d="M57.7062 55.2615H67.947V91.4845H90.4767V100.498H57.7062V55.2615Z" fill="#F8C013"/>
<path d="M36.2005 55.6016H41.3209L44.5638 56.1118L47.8068 56.9621L48.3188 57.1322L48.4895 68.5263L47.6361 68.3562L45.2466 67.3358L43.0277 66.6556L39.7848 66.1454H37.2246L34.3231 66.6556L31.2508 67.676L27.6666 69.3766L23.5703 70.737L19.986 71.4173L18.6205 71.5874H13.6708L8.55045 70.737L5.30753 69.8867L4.62482 69.2065L3.60074 65.6352L2.91802 62.234L2.57666 59.513V57.1322L3.60074 57.3022L7.69705 59.1729L10.2572 60.1933L12.9881 60.8735L14.1829 61.0436H18.2792L20.8394 60.5334L23.3996 59.6831L27.8372 57.6424L31.4215 56.4519L34.6644 55.7717L36.2005 55.6016Z" fill="#F8C013"/>
<path d="M98.3279 55.2615H108.569V100.498H98.3279V55.2615Z" fill="#F8C013"/>
<path d="M35.6885 72.4377H41.833L45.5879 73.1179L48.3188 73.9682L48.4895 85.1922V85.3976L44.9052 84.0018L41.6623 83.1515L40.4675 82.9814H36.8833L33.4697 83.6617L30.7388 84.6821L27.4959 86.2126L23.9116 87.403L19.6446 88.2533L16.9137 88.4234L15.5483 87.233L14.0122 85.5324L12.1347 83.3216L9.91588 80.2605L7.69705 76.5191V76.2921L8.55045 76.3491L11.1106 77.1994L13.3295 77.7096L14.6949 77.8796H17.7671L20.6687 77.3694L23.7409 76.3491L27.3252 74.6485L30.0561 73.6281L33.4697 72.7778L35.6885 72.4377Z" fill="#F8C013"/>
<path d="M37.0539 90.124H40.8089L44.5638 90.6342L48.1481 91.6546L48.3188 91.8246V100.838L44.2225 100.668L40.2969 100.158L36.3712 99.3073L31.2508 97.6067L27.8372 96.0761L24.9357 94.5456L24.4237 94.2055V93.8654L28.6906 91.9947L31.9336 90.9743L34.3231 90.4641L37.0539 90.124Z" fill="#F8C013"/>
</g>
</g>
<defs>
<filter id="filter0_d_243_32927" x="0" y="8.59998" width="255.545" height="43.75" filterUnits="userSpaceOnUse" color-interpolation-filters="sRGB">
<feFlood flood-opacity="0" result="BackgroundImageFix"/>
<feColorMatrix in="SourceAlpha" type="matrix" values="0 0 0 0 0 0 0 0 0 0 0 0 0 0 0 0 0 0 127 0" result="hardAlpha"/>
<feOffset dy="4"/>
<feGaussianBlur stdDeviation="2"/>
<feComposite in2="hardAlpha" operator="out"/>
<feColorMatrix type="matrix" values="0 0 0 0 0 0 0 0 0 0 0 0 0 0 0 0 0 0 0.25 0"/>
<feBlend mode="normal" in2="BackgroundImageFix" result="effect1_dropShadow_243_32927"/>
<feBlend mode="normal" in="SourceGraphic" in2="effect1_dropShadow_243_32927" result="shape"/>
</filter>
<filter id="filter1_d_243_32927" x="-1.42334" y="54.4112" width="345.263" height="55.1069" filterUnits="userSpaceOnUse" color-interpolation-filters="sRGB">
<feFlood flood-opacity="0" result="BackgroundImageFix"/>
<feColorMatrix in="SourceAlpha" type="matrix" values="0 0 0 0 0 0 0 0 0 0 0 0 0 0 0 0 0 0 127 0" result="hardAlpha"/>
<feOffset dy="4"/>
<feGaussianBlur stdDeviation="2"/>
<feComposite in2="hardAlpha" operator="out"/>
<feColorMatrix type="matrix" values="0 0 0 0 0 0 0 0 0 0 0 0 0 0 0 0 0 0 0.25 0"/>
<feBlend mode="normal" in2="BackgroundImageFix" result="effect1_dropShadow_243_32927"/>
<feBlend mode="normal" in="SourceGraphic" in2="effect1_dropShadow_243_32927" result="shape"/>
</filter>
<clipPath id="clip0_243_32927">
<rect width="342.5" height="77.292" fill="white" transform="translate(0.550049 53)"/>
</clipPath>
</defs>
</svg>
