<svg width="188" height="42" viewBox="0 0 188 42" fill="none" xmlns="http://www.w3.org/2000/svg">
<path d="M97.5801 2.73413H99.5078L101.068 2.91588L102.996 3.37026L104.74 4.09726L106.025 4.82426L107.219 5.73301L108.137 6.55089L108.963 7.55052L109.697 8.55015L110.523 10.095L111.166 12.0034L111.441 13.3665L111.533 14.0935V16.3654L111.258 18.092L110.891 19.3643L110.34 20.7274L109.697 21.9088L108.779 23.1811L107.678 24.3624L106.484 25.3621L104.832 26.3617L103.639 26.9069L102.262 27.3613L100.426 27.7248L99.6914 27.8157H97.2129L95.377 27.5431L93.7246 27.0887L92.0723 26.3617L90.6953 25.5438L89.6855 24.7259L88.9512 24.0898L88.125 23.0902L87.3906 22.0906L86.6562 20.8183L86.0137 19.1825L85.5547 17.0924L85.4629 16.1837V14.457L85.7383 12.5487L86.2891 10.7312L87.207 8.82277L88.125 7.55052L89.2266 6.27826L90.2363 5.46039L91.2461 4.73339L92.5312 4.00638L93.9082 3.46113L95.1016 3.09763L96.5703 2.82501L97.5801 2.73413ZM97.3965 7.73227L95.9277 8.09577L94.459 8.82277L93.541 9.54977L92.8984 10.1859L92.0723 11.4582L91.6133 12.4578L91.2461 13.8209L91.1543 14.457V16.0928L91.4297 17.5468L91.9805 18.9099L92.623 19.9095L93.4492 20.8183L94.0918 21.4544L95.2852 22.1814L96.5703 22.6358L97.3965 22.8176H99.7832L101.16 22.4541L102.445 21.8179L103.639 20.9092L104.557 19.8187L105.291 18.4555L105.658 17.365L105.842 16.2745V14.3662L105.566 13.003L105.107 11.8217L104.557 10.822L103.73 9.8224L102.904 9.0954L101.711 8.3684L100.426 7.91402L99.5078 7.73227H97.3965Z" fill="#373636"/>
<path d="M115.113 3.18848H127.873L129.617 3.4611L130.994 3.91548L132.371 4.64248L133.289 5.36948L134.023 6.09648L134.666 7.09611L135.125 8.09574L135.492 9.36799L135.584 10.095V12.4578L135.217 14.0935L134.666 15.3658L133.932 16.3654L133.289 17.0924L132.187 17.9103L130.627 18.7281H130.443L131.545 20.3639L132.555 21.8179L136.135 26.9978L136.318 27.3613H129.893L127.23 23.3628L124.621 19.6L120.621 19.6369V27.3613H115.113V3.18848ZM120.621 8.00486L120.529 12.5486L120.621 14.9114H126.771L127.965 14.6388L128.791 14.1844L129.342 13.73L129.801 13.0939L130.076 12.276V10.6402L129.709 9.64062L128.975 8.82274L127.689 8.18662L126.588 8.00486H120.621Z" fill="#373636"/>
<path d="M148.986 2.91577H154.127L155.32 5.7329L157.432 10.6402L161.104 19.1824L162.48 22.3631L163.674 25.0893L163.766 25.362L162.021 26.089L160.186 26.9068L158.533 27.4521L156.789 27.8156L156.055 27.9065H153.025L151.006 27.543L148.803 26.816L146.232 25.6346L144.488 25.0893L143.295 24.9076H141.367L139.898 25.1802L139.439 25.2711L139.99 23.8171L141 21.5452L142.744 17.4558L144.121 14.2752L148.344 4.46065L148.986 2.91577ZM151.465 9.45879L150.547 11.5489L147.701 18.4554L147.059 20.0003L146.996 20.1304L149.262 21.0908L151.098 21.9087L152.658 22.3631L153.852 22.5448H155.596L156.789 22.3631L156.514 21.5452L155.229 18.3646L153.576 14.3661L152.107 10.8219L151.557 9.45879H151.465Z" fill="#373636"/>
<path d="M63.7988 3.18848H84.0859V8.09574H76.7422V27.2704V27.393L71.2344 27.3613V26.9978L71.3262 8.09574H63.7988V3.18848Z" fill="#373636"/>
<path d="M166.795 3.18848H172.303V22.6358H184.512V27.4522H166.795V27.1795V3.18848Z" fill="#373636"/>
<path d="M32.7715 3.18848H38.2793V22.5449H50.3965V27.3613H32.7715V3.18848Z" fill="#373636"/>
<path d="M21.2051 3.37024H23.959L25.7031 3.64286L27.4473 4.09724L27.7227 4.18812L27.8145 10.2768L27.3555 10.1859L26.0703 9.64063L24.877 9.27713L23.1328 9.0045H21.7559L20.1953 9.27713L18.543 9.82238L16.6152 10.7311L14.4121 11.4581L12.4844 11.8216L11.75 11.9125H9.08789L6.33398 11.4581L4.58984 11.0038L4.22266 10.6403L3.67188 8.73188L3.30469 6.91437L3.12109 5.46037V4.18812L3.67188 4.27899L5.875 5.27862L7.25195 5.82387L8.7207 6.18737L9.36328 6.27825H11.5664L12.9434 6.00562L14.3203 5.55124L16.707 4.46074L18.6348 3.82462L20.3789 3.46111L21.2051 3.37024Z" fill="#373636"/>
<path d="M54.6191 3.18848H60.127V27.3613H54.6191V3.18848Z" fill="#373636"/>
<path d="M20.9297 12.3668H24.2344L26.2539 12.7303L27.7227 13.1847L27.8144 19.1825V19.2922L25.8867 18.5463L24.1426 18.092L23.5 18.0011H21.5723L19.7363 18.3646L18.2676 18.9098L16.5234 19.7277L14.5957 20.3638L12.3008 20.8182L10.832 20.9091L10.0977 20.273L9.27148 19.3642L8.26172 18.1828L7.06836 16.5471L5.875 14.5478V14.4265L6.33398 14.457L7.71094 14.9113L8.9043 15.184L9.63867 15.2748H11.291L12.8516 15.0022L14.5039 14.457L16.4316 13.5482L17.9004 13.0029L19.7363 12.5486L20.9297 12.3668Z" fill="#373636"/>
<path d="M21.6641 21.8179H23.6836L25.7031 22.0905L27.6309 22.6357L27.7227 22.7266V27.543L25.5195 27.4521L23.4082 27.1795L21.2969 26.7251L18.543 25.8164L16.707 24.9985L15.1465 24.1806L14.8711 23.9989V23.8171L17.166 22.8175L18.9102 22.2722L20.1953 21.9996L21.6641 21.8179Z" fill="#373636"/>
<path d="M35.25 33.8134H36.2598L36.9023 34.5404L38.2793 36.3579L38.6465 36.7214V33.8134H39.8398V38.9932H38.8301L38.0039 37.9936L36.9023 36.5396L36.4434 35.9944V38.9932H35.25V33.8134Z" fill="#373636"/>
<path d="M77.5599 33.7312H78.024L79.1289 35.1765L80.2305 36.6305L80.3223 33.7225H81.5156V38.9024H80.5059L79.5879 37.8119L78.7617 36.7214L78.1191 35.9035V38.8115V38.9024H76.9258V33.7312H77.5599Z" fill="#373636"/>
<path d="M138.43 33.6317H139.531L140.633 34.9948L141.734 36.4488H141.826V33.6317H143.02V38.7207H142.01L141.367 37.9937L140.266 36.5397L139.623 35.7218L139.531 38.7207H138.43V33.6317Z" fill="#373636"/>
<path d="M102.354 33.7225H105.107L105.934 33.9952L106.76 34.7222L107.127 35.4492L107.219 35.9035V36.6305L106.943 37.4484L106.393 38.1754L105.658 38.6298L105.107 38.8115H102.354V33.7225ZM103.639 34.7222V37.8119H104.557L105.383 37.5393L105.842 36.994L105.934 36.8123V35.7218L105.566 35.1765L105.016 34.813L104.557 34.7222H103.639Z" fill="#373636"/>
<path d="M175.883 33.45H176.984L177.994 33.8135L178.637 34.3587L179.096 35.1766L179.188 35.5401V36.6306L178.82 37.5393L178.27 38.1755L177.443 38.6298L177.168 38.7207H175.699L174.873 38.3572L174.23 37.812L173.771 36.9032L173.68 36.6306V35.631L173.955 34.8131L174.781 33.9043L175.516 33.5408L175.883 33.45ZM176.066 34.5405L175.516 34.8131L175.057 35.3583L174.873 36.1762L175.148 36.9941L175.699 37.5393L176.525 37.7211L177.168 37.5393L177.719 37.085L177.994 36.2671L177.902 35.5401L177.535 34.9948L177.076 34.6313L176.801 34.5405H176.066Z" fill="#373636"/>
<path d="M134.299 33.5408H135.217L136.135 33.8134L137.053 34.6313L137.42 35.3583L137.512 35.7218V36.6305L137.145 37.6302L136.594 38.2663L135.768 38.7207L135.4 38.8115H133.932L133.014 38.3572L132.279 37.5393L132.004 36.8123V35.6309L132.371 34.7221L132.83 34.1769L133.656 33.7225L134.299 33.5408ZM134.299 34.6313L133.656 34.9948L133.289 35.6309L133.197 36.4488L133.473 37.0849L133.932 37.5393L134.666 37.8119L135.492 37.6302L135.951 37.2667L136.227 36.7214V35.7218L135.951 35.1765L135.492 34.813L135.125 34.6313H134.299Z" fill="#373636"/>
<path d="M72.5195 33.7225H73.8965L74.8145 34.086L75.3652 34.5404L75.916 35.54L76.0078 36.4488L75.8242 37.3575L75.2734 38.1754L74.5391 38.7207L73.7129 38.9933H72.6113L71.5098 38.5389L70.7754 37.721L70.5 37.0849V35.6309L70.959 34.7222L71.7852 33.9952L72.5195 33.7225ZM72.7031 34.813L72.1523 35.1765L71.6934 35.9035V36.7214L72.0605 37.4484L72.7949 37.9028H73.6211L74.2637 37.5393L74.7227 36.8123V35.9035L74.3555 35.2674L73.8965 34.9039L73.7129 34.813H72.7031Z" fill="#373636"/>
<path d="M166.887 33.5408H168.998L169.824 33.8134L170.283 34.2678L170.559 34.813V35.7218L170.191 36.4488L169.732 36.8123H169.549L170.191 37.8119L170.742 38.6298V38.7207H169.365L168.631 37.721L168.172 37.0849L167.437 36.994V38.6298L167.346 38.7207H166.244V33.6316L166.887 33.5408ZM167.437 34.6313L167.346 35.9944L167.529 36.0853L168.998 35.9944L169.365 35.54L169.273 34.9039L168.906 34.6313H167.437Z" fill="#373636"/>
<path d="M84.8203 33.7225H87.1152L88.0332 33.9043L88.8594 34.4495L89.2266 34.9039L89.502 35.4492L89.5938 35.8127V36.8123L89.2266 37.721L88.4922 38.448L87.666 38.8115L87.0234 38.9024H84.8203V33.7225ZM86.0137 34.813V37.8119H87.207L87.9414 37.4484L88.3086 36.9032L88.4004 36.1762L88.2168 35.54L87.8496 35.0857L87.2988 34.813H86.0137Z" fill="#373636"/>
<path d="M180.105 33.5408H183.135L183.869 33.9043L184.328 34.4495L184.42 34.7221V35.8127L183.961 36.5397L183.502 36.8123L183.686 37.1758L184.604 38.5389V38.6298H183.227L182.492 37.6302L182.125 37.0849L181.299 36.994V38.6298H180.105V33.5408ZM181.299 34.6313V35.9944H182.768L183.227 35.54V34.9948L182.859 34.6313H181.299Z" fill="#373636"/>
<path d="M90.5117 33.7225H94.3672L94.459 33.8134V34.7222L94.3672 34.813H91.6133L91.7051 35.7218H94L94.0918 35.8127V36.7214L94 36.8123H91.7051V37.8119H94.459V38.8115H90.5117L90.4199 33.8134L90.5117 33.7225Z" fill="#373636"/>
<path d="M161.379 33.6317H165.326V34.5405L164.225 34.6313H162.48L162.572 35.5401L164.959 35.631V36.6306H162.48V37.6302H165.326V38.7207H161.379V33.6317Z" fill="#373636"/>
<path d="M97.5801 33.7225H101.436V34.7222H98.6816V35.7218H101.068L101.16 35.8127V36.7214L101.068 36.8123H98.6816V37.8119H101.527V38.8115H97.5801V33.7225Z" fill="#373636"/>
<path d="M57.2812 33.8134H58.4746L58.5664 37.0849L58.8418 37.6301L59.4844 37.9027L60.3105 37.6301L60.4941 37.3575L60.5859 33.8134H61.7793V37.4484L61.5039 38.1754L60.7695 38.8115L60.127 38.9932H58.8418L57.9238 38.5389L57.4648 37.9027L57.2812 37.1757V33.8134Z" fill="#373636"/>
<path d="M150.822 33.6317H152.107L152.199 36.9941L152.475 37.4485L152.842 37.6302H153.484L153.943 37.3576L154.127 37.085L154.219 33.6317H155.412V37.1758L155.137 37.9029L154.678 38.3572L154.311 38.6299L153.576 38.8116H152.658L151.832 38.539L151.373 38.1755L151.006 37.4485L150.914 37.1758L150.822 33.6317Z" fill="#373636"/>
<path d="M108.045 33.7225H109.238L109.33 37.0849L109.697 37.6302L109.973 37.721H110.615L111.074 37.4484L111.258 37.0849L111.35 36.4488V33.7225H112.543V37.1758L112.268 37.9937L111.625 38.6298L110.799 38.9024H109.697L108.963 38.6298L108.504 38.2663L108.137 37.5393L108.045 37.2667L107.953 36.0853L108.045 33.7225Z" fill="#373636"/>
<path d="M120.713 33.6317H121.814L122.365 34.7222L124.018 38.539V38.8116H122.824L122.365 37.812V37.6302L120.254 37.7211L119.795 38.7207L119.703 38.8116H118.602L118.693 38.3572L120.162 34.904L120.713 33.6317ZM121.172 35.1766L120.621 36.6306H121.906L121.631 35.8127L121.355 35.1766H121.172Z" fill="#373636"/>
<path d="M147.426 33.5408H148.619L149.629 33.9043L149.904 34.086L149.812 34.4495L149.354 35.0857L148.527 34.7221L147.793 34.6313L147.518 34.7221L147.426 35.1765L148.252 35.54L149.354 35.9035L149.904 36.3579L150.088 36.8123V37.721L149.721 38.2663L149.262 38.6298L148.619 38.8115H147.609L146.6 38.448L146.049 38.0845V37.8119L146.6 37.1758L147.059 37.3575L147.701 37.6302L148.344 37.721L148.803 37.5393V37.0849L148.16 36.8123L147.059 36.4488L146.508 36.0853L146.232 35.7218L146.141 34.9948L146.416 34.1769L146.967 33.7225L147.426 33.5408Z" fill="#373636"/>
<path d="M41.9512 33.8134H43.5117L44.4297 34.2677L44.6133 34.5404L44.0625 35.2674L43.6953 35.1765L42.9609 34.9039H42.3184L42.043 35.1765L42.2266 35.54L44.0625 36.1761L44.5215 36.5396L44.7051 36.9031V37.9936L44.3379 38.5389L43.7871 38.9024L42.9609 39.0841L41.9512 38.9932L40.8496 38.448L40.666 38.0845L41.2168 37.4484L41.584 37.5392L42.4102 37.9027H43.2363L43.5117 37.6301L43.4199 37.2666L41.7676 36.7214L41.2168 36.3579L40.9414 36.0852L40.8496 35.8126V34.813L41.2168 34.2677L41.9512 33.8134Z" fill="#373636"/>
<path d="M156.514 33.6317H159.359L159.91 33.9043L160.369 34.3587L160.553 34.7222V35.9945L160.186 36.6306L159.451 37.085L158.992 37.1758L157.707 37.2667V38.6299L157.615 38.7207H156.514V33.6317ZM157.707 34.6313V36.1762H158.809L159.268 35.9036L159.359 35.7218V34.9948L159.084 34.7222L158.809 34.6313H157.707Z" fill="#373636"/>
<path d="M115.297 33.6317H116.949L117.867 34.0861L118.143 34.4496L117.408 35.2675L116.582 34.8131L116.031 34.7222L115.205 34.9948L114.746 35.7218V36.7215L115.113 37.3576L115.756 37.7211H116.49L117.225 37.3576L117.5 37.1758L117.684 37.5393L118.051 37.7211L118.143 38.0846L117.408 38.6299L116.49 38.9025H115.572L114.563 38.539L114.012 38.0846L113.553 37.2667L113.369 36.6306L113.461 35.3583L114.012 34.4496L114.654 33.9043L115.297 33.6317Z" fill="#373636"/>
<path d="M64.7168 33.7225H66.0938L66.8281 33.9952L67.3789 34.3587L67.2871 34.7222L66.7363 35.3583L65.8184 34.9039H64.9004L64.3496 35.2674L63.9824 35.9944V36.7214L64.3496 37.4484L64.7168 37.721L65.4512 37.9028L66.2773 37.6302L66.5527 37.3575H66.8281L67.2871 37.8119L67.3789 38.1754L66.7363 38.7207L65.9102 38.9933H64.7168L63.7988 38.6298L63.0645 37.9028L62.6973 37.0849L62.6055 36.0853L62.8809 35.1765L63.4316 34.3587L64.3496 33.8134L64.7168 33.7225Z" fill="#373636"/>
<path d="M126.771 33.5408L127.781 33.6316L128.699 34.086L128.883 34.4495L128.332 35.1765L127.965 35.0857L127.23 34.7221H126.588L126.037 34.9948L125.67 35.4492L125.486 35.9035V36.5397L125.854 37.2667L126.313 37.6302L127.139 37.721L127.781 37.4484L128.24 37.1758L128.975 37.8119L128.791 38.1754L127.965 38.7207L126.771 38.9024L125.762 38.7207L124.844 38.0845L124.293 37.1758L124.201 36.9032V35.6309L124.568 34.7221L125.027 34.1769L125.762 33.7225L126.771 33.5408Z" fill="#373636"/>
<path d="M45.1641 33.8134H49.4785V34.9039H47.918V38.9024H46.7246V34.9039L45.2559 34.9947L45.1641 34.9039L45.0723 33.9042L45.1641 33.8134Z" fill="#373636"/>
<path d="M52.3242 33.8134H56.6387V34.813L56.5469 34.9039H55.0781V38.9024L53.9766 38.9932L53.8848 38.9024V34.9039H52.3242V33.8134Z" fill="#373636"/>
<path d="M129.801 33.6317H130.994L131.086 35.9945V38.7207L130.994 38.8116H129.893L129.801 38.7207V33.6317Z" fill="#373636"/>
<path d="M32.8633 33.8134H33.9648L34.0566 33.9042V38.9932H32.8633V33.8134Z" fill="#373636"/>
<path d="M68.2969 33.8134H69.4902V38.9024H68.2969V33.8134Z" fill="#373636"/>
<path d="M50.3047 33.8134H51.4063L51.498 35.2674V38.9024L51.3145 38.9932L50.3047 38.9024V33.8134Z" fill="#373636"/>
<path d="M171.568 33.5408H172.67V38.7207H171.568V33.5408Z" fill="#373636"/>
<path d="M135.125 31.9958L135.676 32.1776L136.135 32.4502L135.676 32.9046L135.309 33.1772L134.299 33.2681L134.482 32.8137L135.125 31.9958Z" fill="#373636"/>
<path d="M73.5293 32.1776L73.9883 32.2685L74.5391 32.5411L74.4473 32.8137L73.6211 33.359H72.7031L73.2539 32.5411L73.5293 32.1776Z" fill="#373636"/>
</svg>
